<svg id="quotes" xmlns="http://www.w3.org/2000/svg" xmlns:xlink="http://www.w3.org/1999/xlink" viewBox="0 0 446 349">
  <path d="M96.4,173.921h8.13q33.1,0,59.523,25.3t26.426,63.113q0,37.235-26.426,61.365-26.431,24.145-65.332,24.143-42.4,0-70.557-34.031T0,216.964q0-57.583,24.68-107.9t60.394-79.69Q120.794.011,148.664,0,167.247,0,177.7,11.055t10.454,28.5q0,25.6-22.654,37.809-30.782,16.877-48.778,39.55T96.4,173.921m256.681,0h7.55q32.52,0,58.944,25.3T446,262.335q0,36.642-26.426,61.657T354.243,349q-42.982,0-70.849-34.9t-27.876-97.14q0-44.782,14.521-84.344,14.5-39.548,37.456-68.927,22.933-29.363,49.361-46.532Q383.276.012,404.187,0q19.163,0,29.326,10.763t10.163,28.793q0,26.175-22.651,37.809-31.944,18.036-48.2,39.842t-19.746,56.715" transform="translate(0 -0.002)" fill="green"/>
</svg>
